<mxfile host="app.diagrams.net" modified="2024-04-15T18:21:00.907Z" agent="Mozilla/5.0 (Windows NT 10.0; Win64; x64) AppleWebKit/537.36 (KHTML, like Gecko) Chrome/123.0.0.0 Safari/537.36" etag="I6qD4FCMRw3CDTPIJ_lP" version="24.2.5" type="github">
  <diagram name="Pagina-1" id="eg9MmAO8pj_6sEsnwFH7">
    <mxGraphModel dx="3436" dy="1591" grid="1" gridSize="10" guides="1" tooltips="1" connect="1" arrows="1" fold="1" page="1" pageScale="1" pageWidth="827" pageHeight="1169" math="0" shadow="0">
      <root>
        <mxCell id="0" />
        <mxCell id="1" parent="0" />
        <mxCell id="iBhsGcctu8QogU5b9aej-12" value="" style="group" vertex="1" connectable="0" parent="1">
          <mxGeometry x="-790" y="740" width="155" height="215" as="geometry" />
        </mxCell>
        <mxCell id="iBhsGcctu8QogU5b9aej-5" value="" style="image;aspect=fixed;perimeter=ellipsePerimeter;html=1;align=center;shadow=0;dashed=0;spacingTop=3;image=img/lib/active_directory/laptop_client.svg;flipV=0;flipH=1;" vertex="1" parent="iBhsGcctu8QogU5b9aej-12">
          <mxGeometry width="155" height="172.22" as="geometry" />
        </mxCell>
        <mxCell id="iBhsGcctu8QogU5b9aej-10" value="CLIENT" style="text;html=1;align=center;verticalAlign=middle;resizable=0;points=[];autosize=1;strokeColor=none;fillColor=none;fontSize=15;" vertex="1" parent="iBhsGcctu8QogU5b9aej-12">
          <mxGeometry x="37.5" y="185" width="80" height="30" as="geometry" />
        </mxCell>
        <mxCell id="iBhsGcctu8QogU5b9aej-13" value="" style="group" vertex="1" connectable="0" parent="1">
          <mxGeometry x="-20" y="280" width="160" height="180" as="geometry" />
        </mxCell>
        <mxCell id="iBhsGcctu8QogU5b9aej-7" value="" style="image;aspect=fixed;perimeter=ellipsePerimeter;html=1;align=center;shadow=0;dashed=0;fontColor=#4277BB;labelBackgroundColor=default;fontSize=12;spacingTop=3;image=img/lib/ibm/blockchain/smart_contract.svg;" vertex="1" parent="iBhsGcctu8QogU5b9aej-13">
          <mxGeometry x="10" width="140" height="140" as="geometry" />
        </mxCell>
        <mxCell id="iBhsGcctu8QogU5b9aej-9" value="SMART CONTRACT" style="text;html=1;align=center;verticalAlign=middle;resizable=0;points=[];autosize=1;strokeColor=none;fillColor=none;fontSize=15;" vertex="1" parent="iBhsGcctu8QogU5b9aej-13">
          <mxGeometry y="150" width="160" height="30" as="geometry" />
        </mxCell>
        <mxCell id="iBhsGcctu8QogU5b9aej-14" value="" style="group" vertex="1" connectable="0" parent="1">
          <mxGeometry x="630" y="550" width="140" height="200" as="geometry" />
        </mxCell>
        <mxCell id="iBhsGcctu8QogU5b9aej-3" value="" style="image;aspect=fixed;perimeter=ellipsePerimeter;html=1;align=center;shadow=0;dashed=0;fontColor=#4277BB;labelBackgroundColor=default;fontSize=12;spacingTop=3;image=img/lib/ibm/blockchain/blockchain.svg;" vertex="1" parent="iBhsGcctu8QogU5b9aej-14">
          <mxGeometry width="140" height="140" as="geometry" />
        </mxCell>
        <mxCell id="iBhsGcctu8QogU5b9aej-8" value="BLOCKCHAIN" style="text;html=1;align=center;verticalAlign=middle;resizable=0;points=[];autosize=1;strokeColor=none;fillColor=none;fontSize=18;" vertex="1" parent="iBhsGcctu8QogU5b9aej-14">
          <mxGeometry y="160" width="140" height="40" as="geometry" />
        </mxCell>
        <mxCell id="iBhsGcctu8QogU5b9aej-15" value="" style="group" vertex="1" connectable="0" parent="1">
          <mxGeometry x="-700" y="40.00000000000001" width="118" height="250.70999999999998" as="geometry" />
        </mxCell>
        <mxCell id="iBhsGcctu8QogU5b9aej-4" value="" style="image;aspect=fixed;perimeter=ellipsePerimeter;html=1;align=center;shadow=0;dashed=0;spacingTop=3;image=img/lib/active_directory/generic_server.svg;direction=east;flipV=0;flipH=1;" vertex="1" parent="iBhsGcctu8QogU5b9aej-15">
          <mxGeometry width="118" height="210.71" as="geometry" />
        </mxCell>
        <mxCell id="iBhsGcctu8QogU5b9aej-11" value="&lt;font style=&quot;font-size: 18px;&quot;&gt;SERVER&lt;/font&gt;" style="text;html=1;align=center;verticalAlign=middle;resizable=0;points=[];autosize=1;strokeColor=none;fillColor=none;fontSize=15;" vertex="1" parent="iBhsGcctu8QogU5b9aej-15">
          <mxGeometry x="9" y="210.70999999999998" width="100" height="40" as="geometry" />
        </mxCell>
      </root>
    </mxGraphModel>
  </diagram>
</mxfile>
